<svg width="24" height="24" viewBox="0 0 24 24" fill="none" xmlns="http://www.w3.org/2000/svg">
<rect width="24" height="24" fill="white"/>
<path d="M8.684 15L4.988 6.6H6.284L9.68 14.352H8.936L12.356 6.6H13.556L9.872 15H8.684Z" fill="black"/>
<path d="M15.66 19.048C15.044 19.048 14.46 18.94 13.908 18.724C13.364 18.5 12.948 18.22 12.66 17.884L12.876 17.596C13.148 17.9 13.532 18.16 14.028 18.376C14.532 18.584 15.072 18.688 15.648 18.688C16.232 18.688 16.712 18.608 17.088 18.448C17.464 18.288 17.74 18.076 17.916 17.812C18.1 17.54 18.192 17.24 18.192 16.912C18.192 16.528 18.096 16.22 17.904 15.988C17.712 15.756 17.456 15.572 17.136 15.436C16.824 15.3 16.48 15.188 16.104 15.1C15.736 15.012 15.36 14.92 14.976 14.824C14.6 14.72 14.252 14.592 13.932 14.44C13.62 14.28 13.368 14.064 13.176 13.792C12.992 13.512 12.9 13.152 12.9 12.712C12.9 12.336 13 11.984 13.2 11.656C13.4 11.328 13.712 11.064 14.136 10.864C14.56 10.656 15.104 10.552 15.768 10.552C16.224 10.552 16.672 10.624 17.112 10.768C17.56 10.904 17.94 11.088 18.252 11.32L18.072 11.644C17.736 11.396 17.364 11.212 16.956 11.092C16.548 10.972 16.156 10.912 15.78 10.912C15.22 10.912 14.752 10.996 14.376 11.164C14.008 11.324 13.736 11.54 13.56 11.812C13.384 12.084 13.296 12.384 13.296 12.712C13.296 13.104 13.392 13.416 13.584 13.648C13.776 13.88 14.028 14.064 14.34 14.2C14.66 14.336 15.008 14.448 15.384 14.536C15.76 14.624 16.136 14.72 16.512 14.824C16.888 14.92 17.232 15.048 17.544 15.208C17.864 15.368 18.116 15.584 18.3 15.856C18.492 16.12 18.588 16.468 18.588 16.9C18.588 17.276 18.484 17.628 18.276 17.956C18.076 18.284 17.756 18.548 17.316 18.748C16.884 18.948 16.332 19.048 15.66 19.048Z" fill="black"/>
</svg>
