<svg width="182" height="273" viewBox="0 0 182 273" fill="none" xmlns="http://www.w3.org/2000/svg">
<path d="M136.5 91C136.5 78.4401 132.057 67.7168 123.17 58.8301C114.283 49.9434 103.56 45.5 91 45.5C78.4401 45.5 67.7168 49.9434 58.8301 58.8301C49.9434 67.7168 45.5 78.4401 45.5 91C45.5 103.56 49.9434 114.283 58.8301 123.17C67.7168 132.057 78.4401 136.5 91 136.5C103.56 136.5 114.283 132.057 123.17 123.17C132.057 114.283 136.5 103.56 136.5 91ZM182 91C182 103.915 180.045 114.52 176.135 122.814L111.439 260.381C109.544 264.291 106.729 267.372 102.997 269.623C99.2646 271.874 95.2656 273 91 273C86.7344 273 82.7354 271.874 79.0029 269.623C75.2705 267.372 72.5156 264.291 70.7383 260.381L5.86523 122.814C1.95508 114.52 0 103.915 0 91C0 65.8802 8.88672 44.4336 26.6602 26.6602C44.4336 8.88672 65.8802 0 91 0C116.12 0 137.566 8.88672 155.34 26.6602C173.113 44.4336 182 65.8802 182 91Z" fill="black"/>
<g clip-path="url(#clip0_7_11)">
<path d="M153.5 26H28.5V152H153.5V26Z" fill="white"/>
<path d="M73.7292 104.75L54.4792 60.65H61.2292L78.9167 101.348H75.0417L92.8542 60.65H99.1042L79.9167 104.75H73.7292Z" fill="black"/>
<path d="M110.063 126.002C106.854 126.002 103.813 125.435 100.938 124.301C98.1042 123.125 95.9375 121.655 94.4375 119.891L95.5625 118.379C96.9792 119.975 98.9792 121.34 101.563 122.474C104.188 123.566 107 124.112 110 124.112C113.042 124.112 115.542 123.692 117.5 122.852C119.458 122.012 120.896 120.899 121.813 119.513C122.771 118.085 123.25 116.51 123.25 114.788C123.25 112.772 122.75 111.155 121.75 109.937C120.75 108.719 119.417 107.753 117.75 107.039C116.125 106.325 114.333 105.737 112.375 105.275C110.458 104.813 108.5 104.33 106.5 103.826C104.542 103.28 102.729 102.608 101.063 101.81C99.4375 100.97 98.125 99.8359 97.125 98.4079C96.1667 96.9379 95.6875 95.0479 95.6875 92.7379C95.6875 90.7639 96.2083 88.9159 97.25 87.1939C98.2917 85.4719 99.9167 84.086 102.125 83.036C104.333 81.944 107.167 81.3979 110.625 81.3979C113 81.3979 115.333 81.7759 117.625 82.5319C119.958 83.2459 121.938 84.2119 123.563 85.4299L122.625 87.1309C120.875 85.8289 118.937 84.8629 116.812 84.2329C114.687 83.6029 112.646 83.2879 110.687 83.2879C107.771 83.2879 105.333 83.7289 103.375 84.6109C101.458 85.4509 100.042 86.585 99.125 88.013C98.2083 89.441 97.75 91.0159 97.75 92.7379C97.75 94.7959 98.25 96.4339 99.25 97.6519C100.25 98.8699 101.563 99.8359 103.188 100.55C104.854 101.264 106.667 101.852 108.625 102.314C110.583 102.776 112.542 103.28 114.5 103.826C116.458 104.33 118.25 105.002 119.875 105.842C121.542 106.682 122.854 107.816 123.812 109.244C124.812 110.63 125.312 112.457 125.312 114.725C125.312 116.699 124.771 118.547 123.687 120.269C122.646 121.991 120.979 123.377 118.688 124.427C116.438 125.477 113.563 126.002 110.063 126.002Z" fill="black"/>
</g>
<defs>
<clipPath id="clip0_7_11">
<rect x="28.5" y="26" width="125" height="126" rx="62.5" fill="white"/>
</clipPath>
</defs>
</svg>
