<svg width="205" height="273" viewBox="0 0 205 273" fill="none" xmlns="http://www.w3.org/2000/svg">
<path d="M102.5 0C45.8525 0 0.125 45.7275 0.125 102.375C0.125 170.625 102.5 273 102.5 273C102.5 273 204.875 170.625 204.875 102.375C204.875 45.7275 159.147 0 102.5 0ZM102.5 34.125C140.379 34.125 170.75 64.8375 170.75 102.375C170.75 140.254 140.379 170.625 102.5 170.625C64.9625 170.625 34.25 140.254 34.25 102.375C34.25 64.8375 64.9625 34.125 102.5 34.125Z" fill="black"/>
<rect x="34" y="34" width="137" height="137" rx="68.5" fill="white"/>
<g clip-path="url(#clip0_22_19)">
<path d="M85.2292 118.25L65.9792 74.15H72.7292L90.4167 114.848H86.5417L104.354 74.15H110.604L91.4167 118.25H85.2292Z" fill="black"/>
<path d="M121.563 139.502C118.354 139.502 115.313 138.935 112.438 137.801C109.604 136.625 107.437 135.155 105.938 133.391L107.063 131.879C108.479 133.475 110.479 134.84 113.063 135.974C115.688 137.066 118.5 137.612 121.5 137.612C124.542 137.612 127.042 137.192 129 136.352C130.958 135.512 132.396 134.399 133.313 133.013C134.271 131.585 134.75 130.01 134.75 128.288C134.75 126.272 134.25 124.655 133.25 123.437C132.25 122.219 130.917 121.253 129.25 120.539C127.625 119.825 125.833 119.237 123.875 118.775C121.958 118.313 120 117.83 118 117.326C116.042 116.78 114.229 116.108 112.563 115.31C110.938 114.47 109.625 113.336 108.625 111.908C107.667 110.438 107.187 108.548 107.187 106.238C107.187 104.264 107.708 102.416 108.75 100.694C109.792 98.9719 111.417 97.586 113.625 96.536C115.833 95.444 118.667 94.8979 122.125 94.8979C124.5 94.8979 126.833 95.2759 129.125 96.0319C131.458 96.7459 133.438 97.7119 135.063 98.9299L134.125 100.631C132.375 99.3289 130.437 98.3629 128.312 97.7329C126.187 97.1029 124.146 96.7879 122.187 96.7879C119.271 96.7879 116.833 97.2289 114.875 98.1109C112.958 98.9509 111.542 100.085 110.625 101.513C109.708 102.941 109.25 104.516 109.25 106.238C109.25 108.296 109.75 109.934 110.75 111.152C111.75 112.37 113.063 113.336 114.688 114.05C116.354 114.764 118.167 115.352 120.125 115.814C122.083 116.276 124.042 116.78 126 117.326C127.958 117.83 129.75 118.502 131.375 119.342C133.042 120.182 134.354 121.316 135.312 122.744C136.312 124.13 136.812 125.957 136.812 128.225C136.812 130.199 136.271 132.047 135.187 133.769C134.146 135.491 132.479 136.877 130.188 137.927C127.938 138.977 125.063 139.502 121.563 139.502Z" fill="black"/>
</g>
<defs>
<clipPath id="clip0_22_19">
<rect x="40" y="39.5" width="125" height="126" rx="62.5" fill="white"/>
</clipPath>
</defs>
</svg>
